<svg fill="#000000" xmlns="http://www.w3.org/2000/svg"  viewBox="0 0 64 64" width="64px" height="64px"><path fill="none" stroke="#000000" stroke-miterlimit="10" d="M32,4c-9.927,0-13,4.709-13,7.764V17h13v4H11.764C7.818,21,4,23.855,4,32s3.818,11,7.764,11h7.509v-5.909c0-2.8,2.291-5.091,5.091-5.091h15.273c2.8,0,5.364-2.291,5.364-5.091V11.764C45,8.582,41.927,4,32,4z"/><path fill="none" stroke="#000000" stroke-miterlimit="10" d="M32,60c9.927,0,12.727-4.709,12.727-7.764V47H32v-4h20.236C56.182,43,60,40.145,60,32s-3.818-11-7.764-11H45v5.909c0,2.8-2.564,5.091-5.364,5.091H24.364C21.564,32,19,34.291,19,37.091v15.145C19,55.291,22.073,60,32,60z"/><path d="M26.5 9A2.5 2.5 0 1 0 26.5 14 2.5 2.5 0 1 0 26.5 9zM38.5 50A2.5 2.5 0 1 0 38.5 55 2.5 2.5 0 1 0 38.5 50z"/><path fill="none" stroke="#000000" stroke-miterlimit="10" stroke-width="2" d="M32,4c-9.927,0-13,4.709-13,7.764V17h13v4H11.764C7.818,21,4,23.855,4,32s3.818,11,7.764,11H19v-5.909c0-2.8,2.564-5.091,5.364-5.091h15.273c2.8,0,5.364-2.291,5.364-5.091V11.764C45,8.582,41.927,4,32,4z"/><path fill="none" stroke="#000000" stroke-miterlimit="10" stroke-width="2" d="M32,60c9.927,0,13-4.709,13-7.764V47H32v-4h20.236C56.182,43,60,40.145,60,32s-3.818-11-7.764-11H45v5.909c0,2.8-2.564,5.091-5.364,5.091H24.364C21.564,32,19,34.291,19,37.091v15.145C19,55.291,22.073,60,32,60z"/><path fill="none" stroke="#000000" stroke-linecap="round" stroke-miterlimit="10" stroke-width="2" d="M37.652 37L37.652 39M42.217 37L42.217 39M46.783 37L46.783 39M51.348 37L51.348 39"/><g><path fill="none" stroke="#000000" stroke-linecap="round" stroke-miterlimit="10" stroke-width="2" d="M15.652 25.083L15.652 27.083M20.217 25.083L20.217 27.083M24.783 25.083L24.783 27.083M29.348 25.083L29.348 27.083"/></g></svg>