<?xml version="1.0" standalone="no"?>
<!DOCTYPE svg PUBLIC "-//W3C//DTD SVG 20010904//EN"
 "http://www.w3.org/TR/2001/REC-SVG-20010904/DTD/svg10.dtd">
<svg version="1.0" xmlns="http://www.w3.org/2000/svg"
 width="512.000000pt" height="512.000000pt" viewBox="0 0 512.000000 512.000000"
 preserveAspectRatio="xMidYMid meet">

<g transform="translate(0.000000,512.000000) scale(0.100000,-0.100000)"
fill="#000000" stroke="none">
<path d="M2350 5033 c-211 -22 -413 -64 -588 -125 -861 -296 -1482 -1020
-1646 -1918 -58 -321 -44 -714 39 -1041 83 -327 260 -682 470 -944 79 -99 264
-284 370 -370 344 -278 760 -462 1205 -532 162 -25 558 -25 720 0 543 86 1024
331 1407 719 196 198 335 394 457 643 163 330 241 647 253 1015 13 425 -66
793 -252 1175 -127 259 -281 471 -497 680 -474 462 -1090 710 -1743 703 -88 0
-176 -3 -195 -5z m-500 -2224 l525 -786 0 786 0 786 113 3 112 3 0 -1011 0
-1010 -100 0 -100 0 -31 43 c-17 23 -256 378 -530 790 -275 411 -500 747 -502
747 -1 0 -1 -356 1 -790 l2 -791 -112 3 -113 3 -3 1008 -2 1008 107 -3 108 -3
525 -786z m2410 676 l0 -115 -310 0 -310 0 0 -895 0 -895 -115 0 -115 0 0 895
0 895 -310 0 -310 0 0 115 0 115 735 0 735 0 0 -115z"/>
<path d="M1210 2590 c0 -819 1 -900 16 -900 15 0 16 72 11 818 -3 449 -8 829
-12 845 -7 27 -7 27 41 27 l49 -1 564 -844 c525 -785 567 -845 593 -845 l28 0
0 900 c0 828 -1 900 -16 900 -16 0 -16 -61 -11 -792 4 -436 10 -817 13 -845
l7 -53 -45 0 -45 0 -564 845 c-553 827 -565 844 -596 845 l-33 0 0 -900z"/>
<path d="M2890 3480 c0 -6 110 -10 310 -10 l310 0 0 -890 c0 -784 2 -890 15
-890 13 0 15 106 15 890 l0 890 310 0 c200 0 310 4 310 10 0 7 -218 10 -635
10 -417 0 -635 -3 -635 -10z"/>
</g>
</svg>
