<?xml version="1.0" standalone="no"?>
<!DOCTYPE svg PUBLIC "-//W3C//DTD SVG 20010904//EN"
 "http://www.w3.org/TR/2001/REC-SVG-20010904/DTD/svg10.dtd">
<svg version="1.0" xmlns="http://www.w3.org/2000/svg"
 width="316.000000pt" height="316.000000pt" viewBox="0 0 316.000000 316.000000"
 preserveAspectRatio="xMidYMid meet">

<g transform="translate(0.000000,316.000000) scale(0.100000,-0.100000)"
fill="#000000" stroke="none">
<path d="M1435 3133 c-82 -7 -258 -45 -348 -74 -125 -41 -292 -126 -407 -207
-121 -86 -286 -250 -373 -372 -388 -547 -379 -1297 24 -1834 231 -306 557
-514 941 -598 89 -19 132 -22 313 -22 231 0 312 12 495 73 450 151 824 521
977 966 94 275 109 612 38 895 -121 483 -474 885 -939 1070 -219 86 -483 124
-721 103z m320 -54 c348 -41 639 -183 890 -434 220 -219 349 -453 417 -756 20
-90 23 -131 23 -309 0 -178 -3 -219 -23 -309 -77 -341 -248 -629 -502 -843
-206 -173 -413 -273 -691 -335 -119 -26 -456 -26 -579 0 -306 65 -554 200
-775 422 -221 220 -348 454 -416 766 -33 150 -33 436 0 589 85 402 301 728
632 957 292 201 669 294 1024 252z"/>
<path d="M1502 3015 c-109 -74 -127 -163 -47 -234 60 -52 105 -51 169 5 26 23
28 28 17 47 -11 17 -11 21 3 29 9 5 16 18 16 28 0 17 -7 20 -49 20 -32 0 -55
-6 -65 -16 -20 -20 -21 -44 -1 -44 9 0 15 -9 15 -25 0 -33 -15 -32 -51 4 -32
32 -38 71 -17 115 15 34 42 41 90 25 35 -11 40 -11 53 7 20 27 15 34 -37 55
l-45 18 -51 -34z"/>
<path d="M1725 3013 l-29 -16 22 -15 c25 -17 27 -38 10 -127 -9 -50 -16 -66
-35 -76 -32 -17 -23 -35 15 -31 17 2 40 -2 52 -8 18 -9 25 -8 41 6 25 22 24
41 -2 49 -13 4 -18 12 -15 22 3 8 6 21 6 29 0 20 22 27 52 15 25 -9 25 -11 15
-62 -10 -51 -10 -53 22 -81 30 -27 59 -30 94 -11 15 9 6 33 -13 33 -35 0 -42
32 -24 112 8 40 25 86 36 101 27 39 16 45 -36 18 -33 -16 -46 -29 -51 -51 -5
-23 -12 -30 -30 -30 -45 0 -53 8 -48 53 4 33 0 47 -17 65 -24 26 -26 26 -65 5z"/>
<path d="M1230 2975 c-8 -20 -6 -29 9 -44 25 -25 55 -152 47 -196 -7 -38 -1
-42 28 -20 11 8 29 15 41 15 14 0 26 10 33 25 17 37 15 45 -11 45 -21 0 -25 8
-41 83 -10 45 -25 90 -33 100 -24 26 -62 22 -73 -8z"/>
<path d="M1095 2952 c-5 -4 -19 -24 -29 -45 -16 -31 -17 -41 -7 -64 13 -28 12
-29 -34 -55 -10 -6 -20 -7 -22 -2 -23 67 -90 101 -119 60 -21 -30 -17 -44 14
-48 22 -2 33 -14 60 -68 24 -49 31 -74 27 -101 -3 -20 -2 -38 1 -42 3 -3 22 6
41 19 20 13 41 24 48 24 14 0 23 26 17 53 -2 12 -10 15 -26 11 -17 -4 -25 1
-34 21 -17 36 -15 40 13 53 38 17 42 15 55 -23 17 -51 35 -65 85 -65 35 0 46
5 60 26 20 31 6 56 -20 34 -12 -10 -19 -10 -38 3 -27 18 -82 149 -79 190 2 29
2 30 -13 19z"/>
<path d="M2312 2801 c-48 -8 -57 -15 -66 -53 -5 -23 2 -36 44 -84 39 -42 50
-62 48 -82 -8 -66 -98 -17 -98 53 0 35 -1 36 -32 33 -31 -3 -33 -5 -32 -41 1
-27 10 -47 29 -67 69 -72 165 -57 181 28 6 29 1 47 -27 98 -38 71 -33 91 10
50 20 -19 43 -30 74 -33 56 -7 70 11 22 27 -20 7 -43 24 -53 38 -9 15 -21 30
-27 34 -11 8 -12 8 -73 -1z"/>
<path d="M1417 2684 c-434 -67 -791 -380 -911 -796 -78 -273 -51 -550 79 -813
91 -184 224 -331 405 -447 274 -175 643 -216 960 -106 353 123 621 414 717
778 25 96 27 120 27 280 0 156 -3 185 -26 272 -103 383 -381 678 -748 793
-168 52 -335 66 -503 39z m426 -68 c408 -104 720 -441 792 -852 113 -651 -391
-1254 -1048 -1254 -682 0 -1192 623 -1053 1286 44 208 144 390 298 541 160
158 353 259 558 293 41 6 82 13 90 15 8 2 71 2 140 0 90 -3 152 -11 223 -29z"/>
<path d="M795 2113 c-10 -213 0 -584 20 -713 32 -205 69 -324 135 -422 105
-160 297 -307 529 -408 109 -47 106 -48 239 15 267 126 442 276 532 456 95
187 142 587 120 1011 -5 110 -10 205 -10 209 0 5 -351 9 -779 9 l-779 0 -7
-157z m1529 58 c10 -90 8 -544 -4 -654 -32 -314 -87 -474 -207 -607 -99 -109
-269 -225 -449 -305 l-82 -37 -81 36 c-237 104 -435 257 -524 403 -98 161
-147 449 -147 857 0 94 3 215 7 269 l6 97 737 0 737 0 7 -59z"/>
<path d="M930 2175 c0 -8 -9 -23 -19 -32 -15 -12 -18 -24 -14 -51 5 -30 4 -34
-10 -29 -25 9 -30 -9 -12 -43 9 -17 13 -40 10 -51 -4 -12 0 -31 10 -45 9 -14
14 -32 11 -41 -3 -8 3 -28 15 -44 21 -29 21 -31 3 -45 -18 -13 -17 -15 14 -41
30 -26 32 -29 16 -45 -21 -20 -10 -38 22 -38 23 0 25 -3 19 -29 -4 -21 -2 -30
9 -34 10 -4 16 -19 16 -37 0 -19 5 -30 14 -30 7 0 16 -9 19 -20 3 -12 14 -20
26 -20 14 0 21 -6 21 -20 0 -11 7 -20 15 -20 9 0 18 -7 21 -15 4 -10 13 -13
24 -10 23 7 35 -12 20 -30 -8 -10 -31 -15 -65 -15 -49 0 -53 -2 -70 -33 -20
-38 -15 -96 10 -117 8 -7 15 -20 15 -28 0 -9 12 -28 27 -44 23 -24 24 -28 9
-34 -10 -4 -25 1 -36 11 -11 10 -26 15 -35 11 -25 -9 -29 -36 -9 -50 17 -13
17 -16 -6 -60 -24 -44 -24 -46 -7 -63 17 -17 19 -17 38 10 23 31 55 38 44 10
-11 -31 -10 -37 7 -41 9 -2 26 6 38 18 18 18 20 29 15 60 -4 22 -2 41 4 44 17
11 21 -11 11 -65 -8 -41 -7 -56 2 -66 17 -17 177 -20 187 -4 4 7 4 39 -1 72
-6 33 -7 63 -5 66 3 2 15 0 26 -7 22 -11 28 -35 11 -45 -15 -9 -12 -51 5 -65
19 -15 47 4 38 26 -8 22 26 28 48 8 15 -14 24 -16 37 -8 27 17 26 49 -2 68
-26 17 -26 52 0 42 17 -6 18 8 4 35 -14 24 -32 24 -55 -1 -10 -11 -22 -20 -27
-20 -17 0 -7 39 13 53 24 17 38 70 39 140 0 52 -24 87 -60 87 -21 0 -27 15
-10 25 6 3 10 17 10 31 0 14 6 24 14 24 9 0 17 15 21 40 4 25 12 40 21 40 8 0
14 10 14 24 0 14 5 28 11 31 6 4 8 13 5 21 -3 7 4 20 15 27 12 9 17 20 13 31
-4 11 0 22 12 31 26 18 39 7 19 -15 -21 -23 -12 -40 21 -40 27 0 28 -3 14 -30
-8 -15 -6 -21 10 -30 12 -6 20 -21 20 -35 0 -25 33 -67 63 -78 9 -3 17 -13 17
-22 0 -8 6 -15 14 -15 8 0 17 -7 20 -16 4 -10 13 -13 25 -9 27 8 34 -9 12 -29
-11 -10 -33 -15 -60 -14 -35 1 -47 -3 -62 -23 -25 -32 -24 -90 1 -122 11 -14
20 -33 20 -42 0 -9 12 -27 28 -40 24 -21 25 -24 9 -30 -10 -4 -28 0 -42 9 -42
27 -79 -9 -38 -39 15 -11 14 -15 -8 -54 -17 -32 -21 -46 -13 -58 17 -27 33
-26 45 1 7 14 20 26 30 26 16 0 17 -4 9 -25 -11 -28 0 -39 29 -30 24 7 44 51
32 73 -10 21 -4 42 13 42 10 0 11 -12 3 -55 -13 -80 -5 -86 102 -83 l86 3 -3
73 c-1 39 2 72 6 72 5 0 17 -9 27 -20 14 -16 16 -23 7 -32 -15 -15 -16 -67 -2
-69 29 -5 35 -2 40 21 7 29 50 42 50 15 0 -21 39 -16 54 7 8 14 5 23 -16 45
-18 19 -24 33 -19 42 5 7 14 10 20 7 14 -9 14 -4 1 28 -11 31 -30 33 -55 6
-10 -11 -22 -20 -27 -20 -16 0 -8 34 13 56 22 24 38 82 39 145 0 41 -33 79
-70 79 -22 0 -22 1 -7 18 10 10 17 27 17 37 0 10 7 23 15 29 9 6 16 25 18 43
1 22 8 34 21 37 11 3 16 10 13 20 -3 8 1 20 9 27 8 7 13 18 10 25 -3 8 4 20
15 27 12 9 17 20 13 31 -4 11 1 24 14 37 12 10 19 25 16 33 -3 8 -1 17 5 21 6
3 11 14 11 25 0 10 6 20 14 23 8 3 15 16 15 29 0 13 1 33 1 46 0 12 4 22 9 22
5 0 12 10 16 23 4 12 8 24 10 27 1 3 5 13 9 22 4 9 5 22 1 28 -3 5 1 20 9 32
19 27 21 55 4 60 -7 3 -13 13 -13 24 0 42 -34 21 -123 -75 -86 -95 -93 -106
-117 -184 -14 -46 -25 -88 -25 -94 0 -19 -21 -27 -31 -12 -21 34 -9 93 31 157
22 34 40 67 40 72 0 6 -11 10 -24 10 -15 0 -26 7 -29 20 -3 14 -14 20 -31 20
-16 0 -26 6 -26 15 0 8 -8 15 -19 15 -10 0 -24 7 -31 15 -19 23 -40 0 -40 -44
0 -51 -12 -65 -49 -58 -24 5 -33 2 -41 -13 -10 -19 -11 -18 -48 6 -44 31 -58
52 -43 67 14 14 15 57 1 57 -5 0 -10 11 -10 25 0 29 -24 33 -51 9 -17 -15 -19
-15 -30 10 -15 33 -37 33 -49 1 -5 -14 -15 -25 -21 -25 -7 0 -8 -13 -4 -41 7
-39 6 -41 -15 -34 -20 6 -21 4 -15 -29 4 -21 3 -36 -2 -36 -15 0 -40 -56 -68
-153 -15 -48 -30 -85 -35 -82 -5 3 -12 26 -16 50 -6 41 -2 52 35 117 22 39 41
75 41 79 0 5 -11 9 -24 9 -15 0 -26 7 -29 20 -3 12 -14 20 -26 20 -12 0 -24 7
-27 15 -4 8 -14 15 -24 15 -10 0 -23 7 -31 16 -12 14 -14 14 -26 -2 -7 -10
-13 -35 -13 -56 0 -32 -4 -39 -24 -44 -14 -3 -29 -3 -35 0 -5 4 -16 -3 -25
-15 l-14 -21 -37 28 c-39 30 -117 125 -136 168 -13 28 -39 35 -39 11z m148
-194 c24 -26 32 -43 32 -71 0 -21 14 -84 30 -140 17 -56 29 -107 27 -113 -8
-24 -97 169 -97 211 0 32 -21 83 -67 160 -24 41 -43 77 -43 80 1 4 20 -15 43
-43 23 -27 57 -65 75 -84z m521 87 c-12 -18 -44 -57 -71 -86 -26 -30 -48 -57
-48 -62 0 -25 -84 -240 -91 -233 -4 4 12 64 35 133 41 118 47 130 116 208 72
82 103 103 59 40z m621 0 c-13 -18 -42 -53 -66 -78 -35 -37 -51 -68 -90 -175
-49 -138 -51 -142 -60 -133 -3 3 14 63 38 133 41 121 47 132 116 212 73 83
105 105 62 41z m-1240 -39 c16 -32 25 -59 20 -59 -13 0 -58 72 -66 106 -11 44
12 20 46 -47z m652 4 c-32 -45 -72 -79 -72 -62 0 16 80 102 88 95 2 -3 -5 -17
-16 -33z m-322 6 c0 -5 7 -9 15 -9 8 0 15 -4 15 -10 0 -5 5 -10 11 -10 20 0
39 -33 27 -47 -11 -14 -32 -6 -85 33 -35 27 -37 66 -2 57 10 -3 19 -9 19 -14z
m620 0 c0 -5 7 -9 15 -9 8 0 15 -4 15 -10 0 -5 6 -10 13 -10 7 0 18 -9 24 -20
11 -16 10 -21 -4 -29 -13 -7 -28 -2 -60 20 -49 34 -55 42 -47 62 6 15 44 12
44 -4z m311 -17 c-41 -53 -61 -69 -61 -50 0 18 64 88 80 88 6 0 -2 -17 -19
-38z m-1267 -62 c20 -28 36 -53 36 -58 -1 -9 -90 89 -90 100 0 20 21 4 54 -42z
m730 9 c18 -21 26 -42 26 -68 0 -20 13 -80 30 -131 16 -52 30 -101 30 -107 1
-58 -80 106 -100 200 -6 33 -18 74 -26 92 -22 53 1 61 40 14z m-396 -9 c34
-20 41 -29 36 -45 -16 -51 -15 -103 5 -163 12 -34 21 -78 20 -99 l-1 -38 -9
33 c-8 26 -14 32 -29 27 -10 -3 -21 -1 -25 5 -5 8 -11 8 -20 0 -10 -8 -16 -7
-24 7 -6 10 -11 13 -11 6 0 -7 -12 -23 -27 -37 -36 -33 -49 -14 -23 32 14 23
20 52 20 93 0 46 3 59 15 59 9 0 15 9 15 25 0 14 4 25 9 25 5 0 11 10 13 23 2
15 9 21 23 19 16 -2 12 4 -15 28 -40 36 -33 36 28 0z m617 1 c27 -19 39 -34
37 -47 -2 -10 -6 -32 -9 -47 -6 -31 15 -145 28 -153 5 -3 9 -24 9 -47 0 -41
-1 -41 -13 -17 -8 14 -19 24 -26 22 -7 -1 -19 2 -26 8 -9 8 -15 8 -20 0 -9
-15 -25 -12 -25 5 0 10 -12 2 -32 -20 -26 -31 -33 -34 -40 -21 -6 11 -3 25 11
45 16 22 21 45 21 90 0 48 3 61 15 61 9 0 15 9 15 25 0 14 5 25 10 25 6 0 10
12 10 26 0 19 4 25 15 20 24 -9 18 6 -12 31 -40 32 -16 28 32 -6z m-719 11
c10 -6 37 -82 31 -88 -1 -1 -19 13 -40 33 -31 28 -36 37 -26 49 13 16 19 17
35 6z m621 -4 c12 -16 34 -80 29 -85 -2 -2 -20 13 -40 33 -29 29 -34 39 -25
50 14 17 24 18 36 2z m-207 -7 c0 -11 -58 -61 -71 -61 -17 0 -9 13 24 41 34
30 47 35 47 20z m620 0 c0 -15 -69 -65 -78 -56 -4 4 9 20 28 36 36 30 50 36
50 20z m-993 -33 c-3 -7 -5 -2 -5 12 0 14 2 19 5 13 2 -7 2 -19 0 -25z m-209
4 c6 -18 -15 -14 -22 4 -4 10 -1 14 6 12 6 -2 14 -10 16 -16z m498 3 c-26 -19
-42 -19 -26 0 7 8 20 15 29 15 13 -1 13 -3 -3 -15z m620 0 c-26 -19 -42 -19
-26 0 7 8 20 15 29 15 13 -1 13 -3 -3 -15z m-1163 -54 c11 -17 16 -31 13 -31
-12 0 -76 69 -76 81 0 19 43 -15 63 -50z m662 49 c3 -5 1 -10 -4 -10 -6 0 -11
5 -11 10 0 6 2 10 4 10 3 0 8 -4 11 -10z m-471 -72 c10 -42 -1 -135 -15 -121
-14 14 -33 127 -26 148 11 26 31 12 41 -27z m620 -6 c5 -25 5 -59 0 -84 -9
-41 -10 -42 -22 -20 -7 12 -16 52 -19 88 -6 61 -5 66 13 62 13 -2 22 -16 28
-46z m-749 17 c11 -33 -3 -35 -33 -6 l-27 27 27 0 c18 0 29 -7 33 -21z m450 1
c-20 -22 -31 -20 -22 5 4 8 14 15 23 15 16 0 16 -2 -1 -20z m59 -15 c-35 -26
-47 -15 -17 17 11 13 20 15 27 8 7 -7 4 -15 -10 -25z m109 16 c7 -28 -3 -34
-25 -14 -23 21 -23 33 1 33 10 0 21 -9 24 -19z m450 -3 c-13 -12 -25 -19 -29
-15 -10 10 16 37 34 37 13 0 12 -4 -5 -22z m77 3 c0 -11 -47 -31 -54 -23 -9 8
36 42 46 36 4 -3 8 -9 8 -13z m-1216 -27 c9 -3 16 -13 16 -20 0 -8 7 -17 15
-20 15 -6 21 -24 8 -24 -11 0 -73 54 -73 63 0 9 13 9 34 1z m524 -16 c-6 -17
-36 -34 -44 -25 -4 4 1 14 12 22 23 18 37 19 32 3z m620 0 c-6 -17 -36 -34
-45 -24 -4 4 1 14 11 22 24 17 39 18 34 2z m-1058 -24 c0 -12 -4 -12 -20 -4
-11 6 -18 15 -15 20 8 13 35 0 35 -16z m563 1 c20 -28 12 -32 -21 -9 -12 8
-20 20 -17 25 9 14 19 10 38 -16z m-87 -11 c-23 -16 -50 -19 -41 -3 8 12 48
29 55 22 3 -3 -4 -11 -14 -19z m139 15 c11 -17 0 -20 -21 -4 -17 13 -17 14 -2
15 9 0 20 -5 23 -11z m495 1 c0 -14 -38 -32 -58 -28 -13 3 -10 8 13 21 35 19
45 21 45 7z m-1180 -40 c8 -5 12 -12 8 -15 -9 -9 -48 4 -48 16 0 12 21 11 40
-1z m620 0 c8 -5 12 -12 8 -15 -9 -9 -48 4 -48 16 0 12 21 11 40 -1z m-130
-10 c0 -5 -9 -10 -20 -10 -11 0 -20 5 -20 10 0 6 9 10 20 10 11 0 20 -4 20
-10z m610 0 c0 -5 -7 -10 -15 -10 -8 0 -15 5 -15 10 0 6 7 10 15 10 8 0 15 -4
15 -10z m-1015 -9 c10 -17 -11 -21 -31 -6 -18 14 -18 14 3 15 12 0 24 -4 28
-9z m620 -1 c3 -5 -3 -10 -14 -10 -11 0 -23 5 -26 10 -3 6 3 10 14 10 11 0 23
-4 26 -10z m-189 -15 c-26 -19 -42 -19 -26 0 7 8 20 15 29 15 13 -1 13 -3 -3
-15z m620 0 c-26 -19 -42 -19 -26 0 7 8 20 15 29 15 13 -1 13 -3 -3 -15z
m-1098 -17 c-3 -7 -15 -15 -28 -16 -21 -3 -22 -2 -11 12 16 19 44 21 39 4z
m620 0 c-3 -7 -15 -15 -28 -16 -21 -3 -22 -2 -11 12 16 19 44 21 39 4z m-193
-8 c3 -5 -1 -10 -9 -10 -9 0 -16 5 -16 10 0 6 4 10 9 10 6 0 13 -4 16 -10z
m245 6 c0 -3 -4 -8 -10 -11 -5 -3 -10 -1 -10 4 0 6 5 11 10 11 6 0 10 -2 10
-4z m370 -6 c0 -5 -4 -10 -10 -10 -5 0 -10 5 -10 10 0 6 5 10 10 10 6 0 10 -4
10 -10z m-1018 -52 c-11 -11 -26 -18 -33 -16 -9 3 -6 11 9 26 13 13 28 20 33
16 7 -4 4 -14 -9 -26z m48 2 c-24 -16 -31 -11 -19 11 8 16 14 18 22 10 9 -9 8
-14 -3 -21z m397 24 c-3 -3 -12 -4 -19 -1 -8 3 -5 6 6 6 11 1 17 -2 13 -5z
m173 -29 c-14 -17 -40 -20 -40 -6 0 6 10 17 22 26 26 17 37 3 18 -20z m46 7
c-8 -9 -19 -13 -22 -9 -10 9 16 38 28 31 6 -4 4 -13 -6 -22z m397 21 c-7 -2
-19 -2 -25 0 -7 3 -2 5 12 5 14 0 19 -2 13 -5z m-683 -13 c0 -5 -4 -10 -10
-10 -5 0 -10 5 -10 10 0 6 5 10 10 10 6 0 10 -4 10 -10z m620 0 c0 -5 -4 -10
-10 -10 -5 0 -10 5 -10 10 0 6 5 10 10 10 6 0 10 -4 10 -10z m-808 -32 c-7 -7
-12 -8 -12 -2 0 14 12 26 19 19 2 -3 -1 -11 -7 -17z m45 -15 c-3 -3 -11 -2
-17 2 -8 5 -7 11 2 22 12 15 13 14 16 -1 2 -10 1 -20 -1 -23z m46 11 c-4 -10
-9 -12 -15 -6 -12 12 -1 35 12 27 5 -3 6 -13 3 -21z m532 7 c-3 -6 -11 -11
-17 -11 -6 0 -6 6 2 15 14 17 26 13 15 -4z m36 -14 c-16 -16 -26 0 -10 19 9
11 15 12 17 4 2 -6 -1 -17 -7 -23z m52 8 c-3 -8 -9 -15 -14 -15 -10 0 -12 24
-3 33 11 11 24 -3 17 -18z m-539 9 c23 -9 20 -26 -4 -19 -16 5 -20 2 -20 -16
0 -12 -3 -20 -6 -16 -6 6 3 57 10 57 3 0 11 -3 20 -6z m627 -10 c12 -15 11
-16 -9 -10 -18 6 -22 4 -22 -15 0 -17 -3 -20 -11 -12 -8 8 -8 17 0 32 14 25
24 26 42 5z m-901 -8 c0 -16 -18 -31 -27 -22 -8 8 5 36 17 36 5 0 10 -6 10
-14z m620 0 c0 -8 -7 -16 -15 -20 -15 -5 -21 14 -8 27 11 12 23 8 23 -7z
m-660 -6 c0 -13 -49 -44 -57 -36 -9 8 27 46 44 46 7 0 13 -4 13 -10z m614 -3
c-5 -15 -44 -40 -51 -34 -2 3 0 15 7 26 12 23 53 30 44 8z m-501 -22 c-5 -13
-23 -22 -23 -11 0 15 14 35 21 31 4 -3 6 -12 2 -20z m608 -18 c-13 -13 -15 1
-4 30 7 17 8 17 11 -1 2 -10 -1 -23 -7 -29z m-558 8 c-3 -8 -9 -15 -14 -15
-10 0 -12 24 -3 33 11 11 24 -3 17 -18z m47 10 c0 -8 -4 -15 -10 -15 -5 0 -10
7 -10 15 0 8 5 15 10 15 6 0 10 -7 10 -15z m40 -6 c0 -11 -4 -17 -10 -14 -5 3
-10 13 -10 21 0 8 5 14 10 14 6 0 10 -9 10 -21z m526 -16 c-11 -11 -19 6 -11
24 8 17 8 17 12 0 3 -10 2 -21 -1 -24z m52 25 c-2 -6 -10 -14 -16 -16 -7 -2
-10 2 -6 12 7 18 28 22 22 4z m42 -3 c0 -8 -4 -15 -10 -15 -5 0 -10 7 -10 15
0 8 5 15 10 15 6 0 10 -7 10 -15z m-808 -17 c-7 -7 -12 -8 -12 -2 0 14 12 26
19 19 2 -3 -1 -11 -7 -17z m628 13 c0 -6 -4 -13 -10 -16 -5 -3 -10 1 -10 9 0
9 5 16 10 16 6 0 10 -4 10 -9z m-686 -26 c-6 -16 -24 -21 -24 -7 0 11 11 22
21 22 5 0 6 -7 3 -15z m40 -7 c3 -15 -1 -30 -14 -43 -17 -17 -20 -17 -20 -3 0
9 5 20 10 23 6 4 8 15 5 26 -4 10 -2 19 3 19 5 0 12 -10 16 -22z m576 13 c0
-5 -6 -14 -14 -20 -12 -10 -13 -8 -9 8 5 21 23 30 23 12z m-543 -33 c-3 -7 -5
-2 -5 12 0 14 2 19 5 13 2 -7 2 -19 0 -25z m44 -1 c-16 -16 -26 0 -10 19 9 11
15 12 17 4 2 -6 -1 -17 -7 -23z m95 -4 c-11 -11 -19 6 -11 24 8 17 8 17 12 0
3 -10 2 -21 -1 -24z m481 5 c-3 -7 -5 -2 -5 12 0 14 2 19 5 13 2 -7 2 -19 0
-25z m47 8 c-6 -16 -24 -23 -24 -8 0 10 22 33 27 28 2 -2 1 -11 -3 -20z m87
-19 c-8 -8 -11 -5 -11 9 0 27 14 41 18 19 2 -9 -1 -22 -7 -28z m-651 24 c0 -6
-4 -13 -10 -16 -5 -3 -10 1 -10 9 0 9 5 16 10 16 6 0 10 -4 10 -9z m135 -40
c-8 -8 -35 22 -35 38 0 12 5 10 20 -9 10 -14 17 -27 15 -29z m485 40 c0 -6 -4
-13 -10 -16 -5 -3 -10 1 -10 9 0 9 5 16 10 16 6 0 10 -4 10 -9z m134 -40 c-7
-7 -34 21 -34 36 0 10 6 8 19 -8 11 -13 18 -26 15 -28z m-674 35 c0 -3 -4 -8
-10 -11 -5 -3 -10 -1 -10 4 0 6 5 11 10 11 6 0 10 -2 10 -4z m410 -4 c0 -5 -9
-17 -20 -27 -20 -18 -25 -11 -14 19 6 17 34 23 34 8z m-520 -19 c0 -14 -19
-38 -25 -32 -8 8 5 39 16 39 5 0 9 -3 9 -7z m613 -18 c-3 -8 -9 -15 -14 -15
-10 0 -12 24 -3 33 11 11 24 -3 17 -18z m-701 -17 c-9 -9 -12 -7 -12 12 0 19
3 21 12 12 9 -9 9 -15 0 -24z m38 11 c0 -6 -4 -7 -10 -4 -5 3 -10 11 -10 16 0
6 5 7 10 4 6 -3 10 -11 10 -16z m81 -22 c-8 -8 -11 -5 -11 9 0 27 14 41 18 19
2 -9 -1 -22 -7 -28z m52 13 c-3 -11 -9 -20 -14 -20 -10 0 -11 12 -3 34 9 22
23 10 17 -14z m57 -6 c0 -14 -4 -22 -10 -19 -5 3 -10 17 -10 31 0 14 4 22 10
19 6 -3 10 -17 10 -31z m390 16 c0 -11 -4 -20 -9 -20 -5 0 -7 9 -4 20 3 11 7
20 9 20 2 0 4 -9 4 -20z m35 10 c3 -5 1 -10 -4 -10 -6 0 -11 5 -11 10 0 6 2
10 4 10 3 0 8 -4 11 -10z m90 -21 c-6 -16 -9 -18 -16 -8 -4 8 -3 19 3 26 15
18 21 9 13 -18z m102 -17 c-3 -14 -6 -12 -14 8 -6 14 -8 29 -5 34 7 13 24 -22
19 -42z m-54 18 c-3 -11 -9 -20 -14 -20 -5 0 -9 9 -9 20 0 11 6 20 14 20 9 0
12 -7 9 -20z m-733 -24 c0 -15 -18 -31 -26 -23 -7 7 7 37 17 37 5 0 9 -6 9
-14z m149 -36 c0 -9 -4 -8 -9 5 -5 11 -9 27 -9 35 0 9 4 8 9 -5 5 -11 9 -27 9
-35z m464 25 c-5 -13 -23 -22 -23 -11 0 15 14 35 21 31 4 -3 6 -12 2 -20z
m149 0 c3 -13 1 -22 -3 -19 -9 5 -13 44 -5 44 2 0 6 -11 8 -25z m-726 -22
c-11 -11 -19 6 -11 24 8 17 8 17 12 0 3 -10 2 -21 -1 -24z m624 17 c0 -11 -4
-20 -10 -20 -5 0 -10 9 -10 20 0 11 5 20 10 20 6 0 10 -9 10 -20z m38 -13 c-7
-14 -13 -17 -16 -9 -6 19 6 44 18 37 7 -4 6 -14 -2 -28z m-608 16 c-1 -18 -18
-35 -24 -24 -4 6 -4 16 -1 21 7 12 25 13 25 3z m15 -33 c-9 -18 -18 -30 -21
-28 -2 3 3 19 12 37 9 18 18 30 21 28 2 -3 -3 -19 -12 -37z m619 -2 c-9 -18
-19 -28 -21 -21 -5 13 27 67 34 59 3 -2 -3 -19 -13 -38z m-711 -18 c-3 -11 -9
-20 -14 -20 -10 0 -11 12 -3 34 9 22 23 10 17 -14z m608 -13 c-13 -13 -15 1
-4 30 7 17 8 17 11 -1 2 -10 -1 -23 -7 -29z m-573 -14 c-10 -13 -10 -17 0 -20
14 -5 16 -39 2 -48 -9 -6 -14 8 -11 28 0 4 -3 7 -9 7 -5 0 -10 9 -10 21 0 11
5 17 10 14 6 -3 10 2 10 13 0 25 14 38 18 17 2 -9 -2 -23 -10 -32z m632 32 c0
-14 -32 -65 -40 -65 -16 0 -12 20 5 26 8 4 12 10 9 15 -3 5 -2 14 1 19 7 11
25 14 25 5z m-540 -15 c0 -5 15 -10 34 -10 57 0 82 -58 55 -127 l-12 -28 -7
25 c-6 22 -8 19 -15 -22 -4 -26 -13 -53 -21 -59 -18 -15 -18 -28 3 -51 18 -21
59 -24 66 -5 2 6 8 9 12 5 4 -4 2 -14 -5 -23 -7 -8 -10 -24 -7 -35 5 -21 -7
-28 -18 -10 -5 8 -11 7 -21 -1 -11 -9 -14 -8 -14 8 0 10 -14 31 -31 45 -30 27
-30 28 -23 99 7 70 6 73 -20 94 l-26 21 16 42 c16 39 34 56 34 32z m620 0 c0
-5 13 -10 28 -10 16 0 36 -6 45 -13 23 -16 32 -75 16 -112 -12 -28 -13 -29
-17 -7 -5 29 -22 18 -22 -15 0 -14 -7 -40 -16 -58 -12 -26 -13 -38 -4 -54 12
-23 49 -28 68 -9 14 14 16 -1 3 -21 -6 -9 -6 -22 0 -33 10 -19 -5 -26 -16 -8
-5 8 -11 7 -21 -1 -11 -9 -14 -8 -14 8 0 11 -14 30 -31 42 l-31 23 7 78 c7 76
7 77 -21 97 l-28 21 18 41 c18 38 36 54 36 31z m-770 -35 c12 -22 10 -27 -19
-57 -32 -32 -32 -35 -26 -95 6 -62 6 -62 -30 -94 -27 -24 -34 -36 -29 -53 6
-19 5 -19 -10 -7 -13 11 -20 11 -28 3 -18 -18 -32 -14 -18 3 10 12 10 21 2 40
-10 23 -10 24 6 14 23 -14 82 13 82 37 0 25 -31 84 -41 78 -12 -7 -11 3 2 28
14 26 -4 49 -23 30 -20 -20 -28 -14 -28 20 0 49 24 68 75 61 26 -3 45 -1 49 6
11 17 21 13 36 -14z m87 3 c-3 -8 -6 -5 -6 6 -1 11 2 17 5 13 3 -3 4 -12 1
-19z m531 -4 c11 -23 9 -29 -19 -57 -30 -30 -31 -34 -26 -93 6 -60 5 -62 -29
-95 -23 -22 -32 -39 -28 -51 3 -10 1 -18 -4 -18 -6 0 -12 6 -15 13 -3 9 -8 9
-21 -2 -21 -17 -33 -7 -16 14 10 12 10 19 2 27 -19 19 -14 29 7 16 15 -9 24
-8 46 6 14 9 28 23 31 31 7 18 -25 87 -37 79 -12 -7 -11 13 1 36 12 22 -6 38
-23 21 -20 -20 -27 -12 -27 29 0 48 19 61 77 53 25 -3 43 -1 47 6 11 18 22 13
34 -15z m92 10 c0 -8 -5 -12 -10 -9 -6 4 -8 11 -5 16 9 14 15 11 15 -7z m-20
-26 c0 -7 -4 -19 -9 -27 -11 -17 -23 1 -15 23 7 19 24 21 24 4z m-35 -217 c-4
-92 -11 -151 -18 -151 -6 0 -8 19 -4 53 3 28 9 98 13 155 10 156 17 113 9 -57z
m-674 92 c-9 -15 -10 -13 -11 13 0 17 3 34 8 38 11 12 14 -32 3 -51z m54 -140
c-4 -59 -11 -103 -17 -103 -6 0 -8 17 -4 43 3 23 9 92 13 152 6 78 9 95 11 60
2 -27 1 -96 -3 -152z m93 158 c4 -41 -14 -33 -20 9 -3 19 -1 29 6 27 6 -2 12
-18 14 -36z m482 17 c0 -13 -5 -30 -10 -38 -7 -11 -10 -5 -10 23 0 20 5 37 10
37 6 0 10 -10 10 -22z m81 -161 c1 -65 -1 -121 -5 -124 -3 -4 -6 41 -6 98 0
57 -2 129 -5 159 -4 47 -3 50 5 20 5 -19 10 -88 11 -153z m57 145 c2 -18 -1
-32 -7 -32 -6 0 -11 9 -11 19 0 11 -3 27 -7 37 -4 12 -2 15 8 12 8 -2 15 -19
17 -36z m-675 -119 c3 -83 1 -143 -4 -143 -5 0 -9 66 -9 147 0 80 2 144 4 142
2 -2 6 -68 9 -146z m31 12 c19 -152 19 -158 7 -151 -4 3 -11 45 -15 93 -4 49
-10 113 -13 143 -3 30 -3 53 0 50 3 -3 12 -64 21 -135z m615 25 c7 -58 14
-120 18 -137 3 -19 1 -33 -5 -33 -9 0 -15 41 -28 205 -9 114 1 90 15 -35z
m-717 -32 c-13 -127 -17 -147 -26 -137 -3 3 28 255 33 267 7 15 5 -19 -7 -130z
m618 -12 c-7 -69 -17 -126 -22 -126 -6 0 -7 17 -4 38 3 20 11 79 17 130 7 51
14 90 16 88 3 -3 -1 -61 -7 -130z m285 -76 c3 -5 1 -10 -4 -10 -6 0 -11 5 -11
10 0 6 2 10 4 10 3 0 8 -4 11 -10z"/>
<path d="M606 2655 c-4 -15 -24 -34 -51 -51 l-45 -26 0 -59 c0 -55 2 -59 29
-74 34 -17 53 -12 121 34 52 36 75 39 90 11 23 -44 -28 -84 -94 -73 -36 6 -36
5 -36 -30 0 -43 23 -54 75 -37 82 27 122 124 71 175 -34 34 -65 39 -117 20
-53 -20 -99 -30 -99 -21 0 4 16 20 35 37 44 39 68 119 35 119 -4 0 -11 -11
-14 -25z"/>
<path d="M2440 2582 c-47 -47 -59 -95 -38 -161 14 -45 14 -46 61 -49 48 -3 59
6 33 28 -47 38 -39 132 15 171 40 28 55 20 63 -36 7 -42 10 -46 33 -43 24 3
25 7 27 63 l1 60 -78 3 -78 3 -39 -39z"/>
<path d="M2696 2449 c6 -32 -1 -40 -74 -87 -50 -32 -70 -40 -93 -35 -32 6 -38
-7 -13 -28 8 -7 22 -25 30 -41 11 -21 22 -28 45 -28 28 0 30 2 25 28 -6 23 -2
30 23 45 29 17 30 17 45 -5 23 -33 20 -43 -23 -71 -42 -28 -56 -62 -41 -101
10 -27 55 -55 67 -42 4 4 2 16 -5 27 -11 17 -11 25 1 43 22 32 152 105 177 99
35 -9 22 16 -17 33 -31 13 -44 14 -71 4 -29 -10 -36 -9 -53 6 -26 23 -24 35
10 64 30 26 45 67 33 87 -5 7 -22 15 -39 19 -28 5 -30 4 -27 -17z"/>
<path d="M377 2398 c-25 -19 -14 -68 16 -68 30 0 167 -106 167 -130 0 -29 19
-34 29 -8 5 13 16 30 25 37 17 14 20 38 10 65 -4 10 -14 14 -32 10 -22 -4 -39
5 -87 45 -68 56 -101 68 -128 49z"/>
<path d="M275 2238 c-34 -29 -36 -34 -30 -72 13 -79 29 -117 62 -146 46 -41
102 -41 166 0 52 33 57 51 36 135 -10 39 -14 44 -34 39 -18 -4 -24 0 -29 20
-10 40 -30 31 -56 -24 -23 -48 -23 -50 -5 -70 13 -15 21 -17 31 -9 14 11 54 3
54 -11 0 -4 -16 -15 -36 -25 -41 -19 -82 -10 -121 27 -32 30 -29 57 9 88 30
25 31 30 20 54 -15 33 -24 33 -67 -6z"/>
<path d="M2774 2101 c-22 -10 -50 -30 -61 -45 -27 -34 -38 -93 -22 -113 18
-21 104 -63 130 -63 34 0 75 30 99 73 12 21 35 44 51 51 l29 12 -23 32 c-25
36 -93 72 -134 72 -16 0 -46 -9 -69 -19z m143 -45 c2 -2 -6 -15 -19 -29 -13
-13 -38 -43 -56 -66 -35 -43 -56 -50 -87 -27 -19 14 -19 15 -1 52 27 58 75 87
130 78 16 -2 31 -6 33 -8z"/>
<path d="M180 1936 c0 -18 -7 -39 -15 -46 -20 -17 -19 -29 11 -94 21 -46 30
-56 47 -54 42 5 146 -14 158 -28 22 -27 34 -15 35 39 1 29 9 67 18 85 21 41
21 45 -10 81 -29 35 -44 34 -36 -4 5 -27 -15 -112 -29 -121 -4 -2 -20 -2 -34
2 -28 7 -34 39 -14 76 14 25 -10 54 -37 44 -14 -5 -16 -15 -11 -57 l6 -50 -37
7 c-20 4 -38 8 -40 9 -1 1 4 15 13 31 17 34 19 68 5 95 -16 29 -30 23 -30 -15z"/>
<path d="M2846 1825 c-59 -21 -98 -65 -100 -111 -1 -33 4 -41 42 -71 24 -18
55 -36 68 -39 35 -9 97 21 118 58 10 16 34 36 52 44 28 12 33 18 25 32 -28 52
-102 103 -148 102 -10 -1 -36 -7 -57 -15z m122 -53 c9 -6 -3 -26 -46 -70 -33
-34 -62 -62 -65 -62 -21 0 -57 22 -57 35 0 28 30 74 58 89 30 17 89 20 110 8z"/>
<path d="M369 1650 c-3 -20 -10 -26 -39 -28 -19 -2 -41 -8 -48 -14 -9 -8 -20
-4 -40 15 -16 15 -33 27 -40 27 -17 0 -92 -70 -92 -85 0 -7 9 -24 21 -39 19
-24 19 -27 5 -48 -21 -29 -20 -52 1 -73 16 -16 17 -16 24 3 7 17 20 21 109 27
88 6 103 5 120 -10 29 -27 38 -12 28 47 -12 66 -25 81 -45 51 -14 -21 -23 -23
-105 -23 -98 0 -112 9 -88 56 17 31 33 30 76 -2 32 -25 36 -26 53 -10 9 9 30
16 44 16 26 0 67 30 67 49 0 6 -11 22 -24 38 l-24 28 -3 -25z"/>
<path d="M2755 1513 c0 -32 -3 -74 -7 -93 -7 -32 -5 -37 21 -52 l29 -16 7 59
c4 32 11 61 15 64 12 7 145 -6 161 -16 11 -6 9 -13 -9 -32 -19 -21 -31 -77
-16 -77 8 0 94 62 94 68 0 3 -17 27 -37 54 -40 52 -44 54 -145 63 -36 4 -74
13 -85 20 -10 8 -20 15 -23 15 -3 0 -5 -26 -5 -57z"/>
<path d="M284 1242 c-23 -15 -25 -48 -4 -67 27 -25 70 -7 70 29 0 34 -39 56
-66 38z"/>
<path d="M2816 1234 c-9 -8 -16 -22 -16 -29 0 -18 27 -45 45 -45 18 0 45 27
45 45 0 18 -27 45 -45 45 -7 0 -21 -7 -29 -16z"/>
<path d="M443 1045 c-6 -17 -93 -65 -118 -65 -8 0 -24 6 -35 12 -14 9 -22 10
-31 1 -8 -8 0 -22 30 -52 26 -26 41 -50 41 -65 0 -32 12 -39 68 -38 32 1 52 8
69 24 40 37 68 102 64 145 -1 11 -61 53 -75 53 -4 0 -9 -7 -13 -15z m27 -77
c0 -23 -41 -96 -58 -103 -19 -7 -42 19 -42 46 0 10 18 28 43 42 49 29 57 31
57 15z"/>
<path d="M2661 1027 c-6 -15 -22 -32 -36 -39 -22 -10 -25 -17 -25 -69 l0 -57
46 -23 c25 -12 62 -37 81 -56 19 -19 36 -33 37 -31 1 1 8 18 16 36 7 17 28 47
46 65 32 31 33 34 22 70 -12 40 -28 50 -28 17 0 -11 -16 -38 -36 -60 -31 -34
-38 -38 -55 -27 -25 15 -24 35 2 63 14 15 19 29 14 43 -10 31 -43 9 -51 -34
-7 -40 -11 -41 -42 -15 l-22 19 24 24 c30 30 43 74 28 89 -8 8 -14 4 -21 -15z"/>
<path d="M530 858 c-1 -17 -99 -88 -122 -88 -25 0 -23 -7 11 -36 16 -13 36
-41 44 -63 16 -40 32 -51 72 -51 33 0 39 15 12 27 -27 13 -62 76 -54 98 15 37
67 24 67 -16 0 -14 7 -19 30 -19 17 0 30 3 30 6 0 18 -25 46 -48 55 l-27 11
30 24 30 24 8 -23 c12 -32 48 -67 69 -67 23 0 23 5 -2 30 -11 11 -20 30 -20
43 0 19 -9 26 -53 40 -64 20 -77 21 -77 5z"/>
<path d="M2508 822 c-35 -16 -38 -20 -38 -57 0 -57 10 -85 29 -85 9 0 32 -15
50 -34 27 -28 32 -40 27 -61 -10 -39 1 -46 39 -24 43 26 44 44 3 86 -25 26
-29 36 -20 45 10 10 17 10 32 0 43 -26 121 -4 107 31 -4 12 -15 15 -39 11 -28
-4 -40 1 -80 36 -27 23 -48 48 -48 56 0 18 -15 17 -62 -4z m52 -72 c18 -16 21
-23 12 -32 -9 -9 -18 -6 -37 12 -14 13 -25 27 -25 32 0 15 27 8 50 -12z"/>
<path d="M640 665 c-45 -33 -59 -60 -60 -111 0 -52 14 -64 84 -71 75 -8 100
10 121 82 9 30 23 59 32 64 21 11 8 30 -33 47 -52 22 -105 18 -144 -11z m106
-38 c-8 -12 -17 -39 -20 -60 -13 -73 -86 -88 -86 -17 0 46 30 87 73 98 41 12
50 6 33 -21z"/>
<path d="M2340 640 c0 -19 5 -30 14 -30 21 0 116 -129 116 -158 l0 -25 25 27
c13 14 29 26 35 26 5 0 10 16 10 35 0 32 -2 35 -19 26 -16 -9 -26 -1 -70 59
-43 60 -55 70 -81 70 -27 0 -30 -3 -30 -30z"/>
<path d="M2217 560 c-9 -24 -17 -30 -42 -30 -35 0 -49 -8 -58 -34 -6 -15 -3
-17 13 -13 17 4 28 -8 62 -66 24 -40 43 -84 44 -99 1 -16 2 -30 3 -33 0 -3 21
8 47 25 44 31 54 56 20 54 -10 -1 -30 21 -51 56 -50 82 -46 120 12 105 23 -6
25 -9 19 -50 -6 -36 -4 -44 11 -49 10 -3 26 -19 35 -36 19 -33 48 -39 72 -14
21 20 22 62 2 45 -11 -9 -17 -8 -28 4 -7 9 -21 25 -30 35 -11 13 -17 33 -15
57 2 40 -12 52 -76 67 -25 6 -30 3 -40 -24z"/>
<path d="M998 506 c-38 -6 -58 -14 -58 -23 0 -24 -58 -130 -75 -137 -24 -9
-10 -23 30 -30 20 -4 51 -20 69 -36 33 -29 34 -30 70 -15 40 17 47 35 14 35
-28 0 -87 34 -94 55 -7 18 12 45 32 45 7 0 22 -9 33 -21 16 -17 23 -19 40 -10
25 14 25 15 5 35 -8 9 -31 16 -50 16 l-34 0 17 28 c9 15 18 29 19 31 2 2 15
-6 30 -18 27 -21 94 -29 94 -11 0 6 -9 10 -19 10 -11 0 -30 13 -43 28 -22 27
-25 27 -80 18z"/>
<path d="M2068 476 c-10 -13 -39 -31 -65 -40 -51 -17 -93 -51 -93 -74 0 -12 4
-12 25 2 13 9 27 16 29 16 3 0 3 -27 -1 -59 -5 -57 -4 -61 25 -90 25 -25 39
-31 76 -31 36 0 48 5 65 26 22 27 28 54 13 54 -5 0 -23 -7 -41 -16 -40 -20
-74 -12 -89 21 -20 44 -15 84 14 108 57 47 74 67 74 87 0 26 -11 25 -32 -4z"/>
<path d="M1145 430 c-3 -6 4 -10 17 -10 13 0 29 -4 37 -9 12 -8 7 -14 -23 -31
-77 -46 -87 -130 -22 -182 26 -21 75 -23 102 -4 19 14 19 15 -1 21 -61 20 -78
30 -85 49 -10 28 7 72 37 96 21 16 35 18 84 13 40 -4 63 -2 74 7 24 20 18 30
-14 24 -18 -4 -46 2 -76 15 -50 22 -120 28 -130 11z"/>
<path d="M1759 368 c-38 -50 -42 -58 -31 -71 6 -7 12 -36 13 -64 2 -45 -1 -56
-21 -75 l-24 -22 39 -8 c56 -12 64 -6 67 53 3 60 21 74 36 29 12 -32 63 -63
89 -53 21 8 16 43 -7 43 -15 0 -23 12 -36 56 -9 32 -13 69 -10 89 6 29 4 33
-21 38 -16 4 -37 9 -49 12 -15 5 -27 -2 -45 -27z m49 -30 c18 -18 15 -68 -3
-68 -8 0 -15 8 -15 18 0 9 -3 27 -6 40 -7 24 5 29 24 10z"/>
<path d="M1499 374 c-9 -11 -9 -18 -1 -26 18 -18 16 -173 -3 -188 -30 -25 -17
-40 35 -40 38 0 52 4 60 19 14 27 13 31 -10 31 -13 0 -20 7 -20 20 0 17 7 20
44 20 36 0 48 5 65 26 25 32 27 66 4 104 -22 37 -50 50 -86 37 -19 -6 -36 -6
-52 1 -18 9 -26 8 -36 -4z m130 -60 c12 -15 21 -35 21 -46 0 -26 -28 -34 -44
-13 -9 13 -15 15 -20 6 -4 -6 -12 -9 -17 -6 -10 7 -12 68 -2 78 14 15 43 6 62
-19z"/>
</g>
</svg>
